<svg id="Layer_1" data-name="Layer 1" xmlns="http://www.w3.org/2000/svg" viewBox="0 0 1041.28 449.89"><defs><style>.cls-1{fill:#4dd0aa;}.cls-2{fill:#28202f;}</style></defs><title>Logo</title><path class="cls-1" d="M306.94,169.78h-1.66a96.77,96.77,0,1,0-187.39,0h-4.36c-5.71,0-10.35,7.56-10.35,16.88h0c0,9.32,4.64,16.88,10.35,16.88h1.67A17.74,17.74,0,0,0,112,213.78v17.33A17.91,17.91,0,0,0,129.85,249h1.43l2.24,5.2,57.24,132.74c3.76,8.73,11.74,14.16,20.83,14.16s17.06-5.43,20.83-14.16L289.65,254.2l2.24-5.2h1.43a17.92,17.92,0,0,0,17.9-17.89V213.78a17.78,17.78,0,0,0-3.31-10.32c5.26-.8,9.38-8,9.38-16.8h0C317.29,177.34,312.66,169.78,306.94,169.78Z"/><path class="cls-2" d="M299.74,186.66c0-13.63-7.81-24.3-17.78-24.3h-.08a96.77,96.77,0,1,0-190.55,0H88.55c-10,0-17.77,10.67-17.77,24.3,0,13,7.13,23.32,16.46,24.22a17.28,17.28,0,0,0-.26,2.9v17.33A17.91,17.91,0,0,0,104.87,249h1.43l2.24,5.2,57.24,132.74c3.76,8.73,11.74,14.16,20.83,14.16s17.07-5.43,20.83-14.16L264.67,254.2l2.24-5.2h1.44a17.92,17.92,0,0,0,17.89-17.89V213.78a17.45,17.45,0,0,0-.34-3.41C293.91,208,299.74,198.43,299.74,186.66Zm-214.11,0c0-5.49,2.15-8.87,3.12-9.45h26.38a7.43,7.43,0,1,0,0-14.85h-8.71a81.92,81.92,0,1,1,160.37,0H255.08a7.43,7.43,0,0,0,0,14.85h26.68c1,.58,3.13,4,3.13,9.45s-2.16,8.87-3.13,9.45H271c-.61-.09-1.22-.15-1.84-.18-.29,0-.57,0-.85,0H104.87c-.29,0-.57,0-.85,0-.62,0-1.24.09-1.84.18H88.75C87.78,195.53,85.63,192.15,85.63,186.66ZM193.8,381.06a7.58,7.58,0,0,1-14.38,0l-23.86-55.33h32.35a6.08,6.08,0,0,0,0-12.15H150.32l-5-11.7h30.6a6.08,6.08,0,0,0,0-12.15H140L135,278h28.83a6.08,6.08,0,1,0,0-12.16H129.75L122.47,249H250.74ZM270,231.11a1.68,1.68,0,0,1-1.68,1.68H104.87a1.69,1.69,0,0,1-1.69-1.68V213.78a1.69,1.69,0,0,1,1.69-1.69H268.35a1.69,1.69,0,0,1,1.68,1.69Z"/><path class="cls-2" d="M501.49,247.77c0-9.46-4.39-17.16-12.68-22.27-6.66-4.2-16.3-7.61-29.49-10.43-11.54-2.44-19.27-5.08-23-7.85-2.61-1.86-3.82-3.85-3.82-6.37,0-2.91,2.78-5.2,5.12-6.6,4.45-2.78,10.92-4.21,19.17-4.21,7.65,0,14.11,1.8,18.67,5.2,3.53,2.47,6.7,3.67,9.7,3.67a8.45,8.45,0,0,0,8.22-5.57,9.3,9.3,0,0,0-1.86-8.57l-.09-.1a16.33,16.33,0,0,0-4.37-3.94l-.16-.12c-7.67-5.68-17.8-8.56-30.11-8.56-11.79,0-21.74,2.27-29.55,6.76C416,185.42,413.6,194.54,413.6,201a24.14,24.14,0,0,0,12.15,21.45c6.5,4.08,16,7.38,29.2,10.14,13.83,3.22,20.3,6.1,23.31,8l.23.15c2.88,2.06,4.05,4.1,4.05,7.06s-1.68,5.18-5.45,7.4c-4.88,2.9-11.48,4.36-19.63,4.36-8.37,0-15.7-1.59-21.79-4.72a21.49,21.49,0,0,0-9.43-2.57,8.43,8.43,0,0,0-8.48,6.15,9,9,0,0,0,3.09,8.77,25.19,25.19,0,0,0,5,3.39c8.88,4.73,19.5,7.13,31.56,7.13,11.75,0,21.79-2.37,29.85-7.06C499,263.92,501.49,254.5,501.49,247.77Z"/><path class="cls-2" d="M602.28,256.55a8.15,8.15,0,0,0-8.06-5.57c-2.92,0-6.24,1.23-9.61,3.56-4.79,3.31-11.69,5-20.51,5-8.58,0-15.2-2.45-20.26-7.51-4.9-5.08-7.35-12-7.35-20.58V218.13c0-8.68,2.45-15.36,7.51-20.42,4.88-5.07,11.67-7.67,20.1-7.67s15.41,1.73,20.35,5.15l.08.06c3.33,2.43,6.54,3.66,9.53,3.66a8.36,8.36,0,0,0,8.22-5.71c1.31-4.43-.94-8.7-6.69-12.67-8-5.64-18.54-8.48-31.49-8.48-13.94,0-25.31,4.29-33.78,12.77s-12.77,19.89-12.77,33.47v13.15c0,13.52,4.35,24.73,12.93,33.31l0,0c8.42,8.56,19.73,12.9,33.6,12.9,12.6,0,23.2-2.86,31.51-8.5a27.3,27.3,0,0,0,4.49-3.94C603,261.79,602.91,258.61,602.28,256.55Z"/><path class="cls-2" d="M665.36,172.21c-14.71,0-26.52,4.2-35.11,12.5s-13,19.72-13,33.74V231.6c0,13.92,4.44,25.27,13.2,33.73,8.59,8.3,20.4,12.51,35.11,12.51s26.35-4.21,34.94-12.51,13-19.71,13-33.73V218.45c0-14.06-4.44-25.4-13.18-33.72S680,172.21,665.36,172.21Zm29.35,59.39c0,9-2.4,15.79-7.35,20.74s-12.23,7.35-21.84,7.35-17.13-2.47-22-7.35c-5-5.16-7.36-11.92-7.36-20.74V218.29c0-8.78,2.48-15.7,7.35-20.58,4.86-5,12-7.51,21.86-7.51s16.94,2.45,22,7.51c4.88,4.88,7.35,11.8,7.35,20.58Z"/><path class="cls-2" d="M774.69,172.21c-14.71,0-26.52,4.2-35.11,12.5s-13,19.72-13,33.74V231.6c0,13.92,4.44,25.27,13.2,33.73,8.59,8.3,20.4,12.51,35.11,12.51s26.35-4.21,34.94-12.51,13-19.71,13-33.73V218.45c0-14.06-4.44-25.4-13.18-33.72S789.28,172.21,774.69,172.21ZM804,231.6c0,9-2.4,15.79-7.35,20.74s-12.23,7.35-21.84,7.35-17.13-2.47-22-7.35c-5-5.16-7.36-11.92-7.36-20.74V218.29c0-8.78,2.48-15.7,7.35-20.58,4.86-5,12-7.51,21.86-7.51s16.94,2.45,22,7.51c4.88,4.88,7.35,11.8,7.35,20.58Z"/><path class="cls-2" d="M919.33,206.09c0-10-4.11-18.4-11.88-24.22-7.29-5.58-17.51-8.4-30.41-8.4H843.29a7.33,7.33,0,0,0-7.41,7.42v88.27a7.33,7.33,0,0,0,7.41,7.41h4a7.5,7.5,0,0,0,7.57-7.41V238.69H877c12.71,0,22.94-2.82,30.42-8.4A29.5,29.5,0,0,0,919.33,206.09Zm-23.75,9.75c-3.74,3.12-10,4.71-18.54,4.71H854.82V191.47H877c8.55,0,14.77,1.57,18.51,4.67a11.7,11.7,0,0,1,5,10C900.54,208.58,900,212.31,895.58,215.84Z"/></svg>