<svg xmlns="http://www.w3.org/2000/svg" viewBox="0 0 250 250"><defs><style>.cls-1{fill:#4dd0aa;}.cls-2{fill:#28202f;}.cls-3{fill:none;}</style></defs><title>marker</title><g id="Layer_2" data-name="Layer 2"><g id="Layer_1-2" data-name="Layer 1"><path class="cls-1" d="M193,86.77h-1.14A67.08,67.08,0,1,0,62,86.77h-3c-4,0-7.17,5.23-7.17,11.69h0c0,6.47,3.21,11.7,7.17,11.7h1.16a12.36,12.36,0,0,0-2.25,7.1v12a12.41,12.41,0,0,0,12.4,12.4h1l1.56,3.61,39.67,92a15.53,15.53,0,0,0,28.87,0l39.67-92,1.56-3.61h1a12.41,12.41,0,0,0,12.4-12.4v-12a12.36,12.36,0,0,0-2.29-7.15c3.64-.56,6.5-5.56,6.5-11.65h0C200.16,92,197,86.77,193,86.77Z"/><path class="cls-2" d="M206.24,97.83c0-9.67-5.54-17.24-12.62-17.24h-.05a68.67,68.67,0,1,0-135.22,0h-2c-7.08,0-12.62,7.57-12.62,17.24,0,9.24,5.06,16.55,11.68,17.19a12.63,12.63,0,0,0-.18,2.06v12.29A12.72,12.72,0,0,0,68,142.07h1l1.59,3.69L111.18,240a15.9,15.9,0,0,0,29.56,0l40.61-94.2,1.59-3.69h1a12.72,12.72,0,0,0,12.7-12.7V117.08a12.81,12.81,0,0,0-.24-2.42C202.1,113,206.24,106.18,206.24,97.83Zm-151.94,0c0-3.89,1.53-6.29,2.22-6.7H75.24a5.27,5.27,0,1,0,0-10.54H69.06a58.13,58.13,0,1,1,113.8,0h-8.31a5.27,5.27,0,0,0,0,10.54h18.93c.69.41,2.22,2.81,2.22,6.7s-1.53,6.3-2.22,6.71h-7.61a11.18,11.18,0,0,0-1.31-.13c-.2,0-.4,0-.6,0H68c-.21,0-.41,0-.61,0a11.39,11.39,0,0,0-1.31.13H56.52C55.83,104.13,54.3,101.73,54.3,97.83Zm76.76,138a5.38,5.38,0,0,1-10.21,0l-16.93-39.26h23a4.32,4.32,0,0,0,0-8.63H100.21l-3.58-8.3h21.71a4.31,4.31,0,0,0,0-8.62H92.91l-3.58-8.3h20.46a4.32,4.32,0,0,0,0-8.63H85.61l-5.16-12h91Zm54.1-106.41a1.2,1.2,0,0,1-1.2,1.2H68a1.2,1.2,0,0,1-1.2-1.2V117.08a1.19,1.19,0,0,1,1.2-1.2H184a1.2,1.2,0,0,1,1.2,1.2Z"/><rect class="cls-3" width="250" height="250"/></g></g></svg>