<svg xmlns="http://www.w3.org/2000/svg" viewBox="0 0 1108.62 1727.16"><defs><style>.cls-1{fill:#4dd0aa;}</style></defs><title>Asset 1</title><g id="Layer_2" data-name="Layer 2"><g id="Layer_1-2" data-name="Layer 1"><polygon class="cls-1" points="194.89 285.65 0 44.4 31.12 19.26 194.89 222 374.22 0 553.55 222 732.88 0 912.22 222 1076 19.26 1107.12 44.4 912.22 285.65 732.88 63.66 553.55 285.65 374.22 63.66 194.89 285.65"/><polygon class="cls-1" points="195.39 414.16 0.5 172.9 31.62 147.76 195.39 350.5 374.72 128.5 554.05 350.5 733.38 128.5 912.72 350.5 1076.5 147.76 1107.62 172.9 912.72 414.15 733.38 192.16 554.05 414.15 374.72 192.16 195.39 414.16"/><polygon class="cls-1" points="195.89 542.66 1 301.39 32.12 276.26 195.89 479 375.22 257 554.55 479 733.88 257 913.22 479 1077 276.26 1108.12 301.4 913.22 542.65 733.88 320.65 554.55 542.65 375.22 320.65 195.89 542.66"/><polygon class="cls-1" points="196.39 671.16 1.5 429.89 32.62 404.76 196.39 607.5 375.72 385.5 555.05 607.5 734.38 385.5 913.72 607.5 1077.5 404.76 1108.62 429.9 913.72 671.15 734.38 449.15 555.05 671.15 375.72 449.15 196.39 671.16"/><polygon class="cls-1" points="194.89 813.65 0 572.4 31.12 547.26 194.89 750 374.22 528 553.55 750 732.88 528 912.22 750 1076 547.26 1107.12 572.4 912.22 813.65 732.88 591.65 553.55 813.65 374.22 591.65 194.89 813.65"/><polygon class="cls-1" points="195.39 942.16 0.5 700.9 31.62 675.76 195.39 878.5 374.72 656.5 554.05 878.5 733.38 656.5 912.72 878.5 1076.5 675.76 1107.62 700.9 912.72 942.15 733.38 720.15 554.05 942.15 374.72 720.15 195.39 942.16"/><polygon class="cls-1" points="195.89 1070.66 1 829.39 32.12 804.26 195.89 1007 375.22 785 554.55 1007 733.88 785 913.22 1007 1077 804.26 1108.12 829.4 913.22 1070.65 733.88 848.65 554.55 1070.65 375.22 848.65 195.89 1070.66"/><polygon class="cls-1" points="196.39 1199.16 1.5 957.89 32.62 932.76 196.39 1135.5 375.72 913.5 555.05 1135.5 734.38 913.5 913.72 1135.5 1077.5 932.76 1108.62 957.9 913.72 1199.15 734.38 977.15 555.05 1199.15 375.72 977.15 196.39 1199.16"/><polygon class="cls-1" points="194.89 1341.65 0 1100.4 31.12 1075.26 194.89 1278 374.22 1056 553.55 1278 732.88 1056 912.22 1278 1076 1075.26 1107.12 1100.4 912.22 1341.65 732.88 1119.65 553.55 1341.65 374.22 1119.65 194.89 1341.65"/><polygon class="cls-1" points="195.39 1470.16 0.5 1228.9 31.62 1203.76 195.39 1406.5 374.72 1184.5 554.05 1406.5 733.38 1184.5 912.72 1406.5 1076.5 1203.76 1107.62 1228.9 912.72 1470.15 733.38 1248.15 554.05 1470.15 374.72 1248.15 195.39 1470.16"/><polygon class="cls-1" points="195.89 1598.66 1 1357.39 32.12 1332.26 195.89 1535 375.22 1313 554.55 1535 733.88 1313 913.22 1535 1077 1332.26 1108.12 1357.4 913.22 1598.65 733.88 1376.65 554.55 1598.65 375.22 1376.65 195.89 1598.66"/><polygon class="cls-1" points="196.39 1727.16 1.5 1485.89 32.62 1460.76 196.39 1663.5 375.72 1441.5 555.05 1663.5 734.38 1441.5 913.72 1663.5 1077.5 1460.76 1108.62 1485.9 913.72 1727.15 734.38 1505.15 555.05 1727.15 375.72 1505.15 196.39 1727.16"/></g></g></svg>