<?xml version="1.0" encoding="utf-8"?>
<!-- Generator: Adobe Illustrator 22.0.1, SVG Export Plug-In . SVG Version: 6.00 Build 0)  -->
<svg version="1.1" id="Layer_1" xmlns="http://www.w3.org/2000/svg" xmlns:xlink="http://www.w3.org/1999/xlink" x="0px" y="0px"
	 viewBox="0 0 500 500" style="enable-background:new 0 0 500 500;" xml:space="preserve">
<style type="text/css">
	.st0{fill:#28202F;}
	.st1{fill:none;}
</style>
<g>
	<g>
		<path class="st0" d="M419.6,245.5l-19.9-11.6l-11.4-48.8c-3-13-14.4-22.1-27.8-22.1h-57.4V154c0-3.8-3.1-6.9-6.9-6.9H83.9
			c-3.8,0-6.9,3.1-6.9,6.9v164.3c0,3.8,3.1,6.9,6.9,6.9h22.1c3.2,15.7,17.2,27.6,33.8,27.6s30.7-11.9,33.8-27.6h139.6
			c3.2,15.7,17.2,27.6,33.8,27.6s30.7-11.9,33.8-27.6h35.2c3.8,0,6.9-3.1,6.9-6.9v-66.9C423.1,249,421.8,246.7,419.6,245.5z
			 M139.9,339.1c-11.4,0-20.7-9.3-20.7-20.7s9.3-20.7,20.7-20.7c11.4,0,20.7,9.3,20.7,20.7C160.6,329.8,151.4,339.1,139.9,339.1z
			 M289.3,286.8h-62.2c-3.8,0-6.9,3.1-6.9,6.9s3.1,6.9,6.9,6.9h62.2v10.9H173.7c-3.2-15.7-17.2-27.6-33.8-27.6s-30.6,11.9-33.8,27.6
			H90.8v-35.7h198.6V286.8z M289.3,170v92H90.8V160.9h198.6V170z M343.1,176.9h17.4c6.8,0,12.8,4.6,14.4,11.4l10.1,43.2h-41.8
			L343.1,176.9L343.1,176.9z M347.1,339.1c-11,0-19.9-8.5-20.7-19.3c0.1-0.4,0.2-0.9,0.2-1.4c0-0.5-0.1-0.9-0.2-1.4
			c0.7-10.8,9.7-19.3,20.7-19.3c11.4,0,20.7,9.3,20.7,20.7S358.5,339.1,347.1,339.1z M409.3,278.7h-13.1v-7.3h13.1V278.7z
			 M409.3,257.7h-20c-3.8,0-6.9,3.1-6.9,6.9v21.1c0,3.8,3.1,6.9,6.9,6.9h20v18.9h-28.4c-3.2-15.7-17.2-27.6-33.8-27.6
			s-30.7,11.9-33.8,27.6h-10.1V176.9h26.2v61.4c0,3.8,3.1,6.9,6.9,6.9h55.6l17.5,10.1L409.3,257.7L409.3,257.7z"/>
		<path class="st0" d="M198.1,300.5h5.8c3.8,0,6.9-3.1,6.9-6.9s-3.1-6.9-6.9-6.9h-5.8c-3.8,0-6.9,3.1-6.9,6.9
			C191.1,297.4,194.3,300.5,198.1,300.5z"/>
	</g>
	<rect x="0" class="st1" width="500" height="500"/>
</g>
</svg>
