<?xml version="1.0" standalone="no"?>
<!DOCTYPE svg PUBLIC "-//W3C//DTD SVG 20010904//EN"
 "http://www.w3.org/TR/2001/REC-SVG-20010904/DTD/svg10.dtd">
<svg version="1.0" xmlns="http://www.w3.org/2000/svg"
 width="354.000000pt" height="354.000000pt" viewBox="0 0 354.000000 354.000000"
 preserveAspectRatio="xMidYMid meet">
<metadata>
Created by potrace 1.11, written by Peter Selinger 2001-2013
</metadata>
<g transform="translate(0.000000,354.000000) scale(0.100000,-0.100000)"
fill="#000000" stroke="none">
<path d="M1580 3511 c-313 -68 -592 -310 -699 -607 -48 -131 -64 -239 -58
-380 l5 -122 -37 -6 c-91 -14 -150 -95 -159 -216 -8 -122 37 -220 117 -256
l41 -18 0 -115 c1 -158 24 -208 113 -246 20 -8 47 -15 59 -15 21 -1 49 -61
288 -618 385 -896 358 -843 445 -883 89 -41 219 -7 271 70 13 20 159 349 323
731 165 382 303 695 308 696 4 2 25 5 46 9 41 7 100 53 123 96 10 20 14 64 14
156 l0 128 39 22 c79 46 120 191 87 307 -20 69 -73 131 -125 147 l-36 11 3
139 c4 166 -12 261 -65 389 -114 276 -340 479 -630 566 -120 36 -344 43 -473
15z m379 -151 c287 -59 531 -287 611 -570 25 -87 36 -228 26 -323 l-8 -67 -69
0 c-82 0 -102 -8 -119 -49 -9 -24 -9 -35 2 -57 22 -46 49 -54 204 -54 120 0
143 -2 148 -16 9 -23 7 -127 -3 -142 -6 -10 -193 -13 -977 -13 l-969 -1 -12
29 c-15 35 -16 71 -2 111 l10 31 149 3 c141 3 150 4 174 27 34 32 34 74 1 106
-20 21 -34 25 -79 25 -52 0 -56 2 -63 28 -14 49 -7 253 11 326 37 155 148 336
264 431 201 166 448 228 701 175z m650 -1474 c8 -9 11 -45 9 -98 l-3 -83 -827
-3 -828 -2 0 93 c0 52 3 97 7 100 3 4 372 7 818 7 685 0 814 -2 824 -14z
m-192 -368 c-35 -93 -572 -1326 -580 -1335 -7 -6 -24 -15 -38 -18 -49 -12 -71
23 -197 318 l-119 277 172 0 c158 0 173 2 190 20 24 27 22 70 -5 92 -20 16
-44 18 -219 18 l-196 0 -21 53 -22 52 163 3 c146 2 164 4 180 22 24 27 22 70
-5 92 -20 16 -44 18 -210 18 l-188 0 -17 43 c-9 23 -19 48 -22 55 -4 9 29 12
148 12 128 0 155 3 171 17 22 19 23 62 4 89 -13 17 -31 19 -202 24 l-187 5
-33 78 -33 77 635 0 c505 0 635 -3 631 -12z"/>
</g>
</svg>
