<?xml version="1.0" encoding="utf-8"?>
<!-- Generator: Adobe Illustrator 22.0.1, SVG Export Plug-In . SVG Version: 6.00 Build 0)  -->
<svg version="1.1" id="Layer_1" xmlns="http://www.w3.org/2000/svg" xmlns:xlink="http://www.w3.org/1999/xlink" x="0px" y="0px"
	 viewBox="0 0 500 500" style="enable-background:new 0 0 500 500;" xml:space="preserve">
<style type="text/css">
	.st0{fill:#28202F;}
	.st1{fill:none;}
</style>
<g>
	<g>
		<path class="st0" d="M232.1,155.3l-31-8.3c-3.4-0.9-7.2-0.2-9.9,2c-2.1,1.6-3.4,3.9-3.6,6.3l-3.5,12.9c-1,2.3-1,5,0,7.5
			c0.3,0.8,0.7,1.6,1.3,2.3c-3.3,6.8-7,15.2-11,24.6l0,0c-3.5,8.2-7,17.1-10.5,26.3c-12,3.3-27.3,17.3-31.8,33.9L102.6,373
			c-2.8,10.6,4.1,21.7,15.6,24.8l30.2,8.1l30.2,8.1c2,0.5,4,0.8,5.9,0.8c3.5,0,6.8-0.8,9.9-2.3c5-2.6,8.6-6.8,10-12.1l4-15.2l0,0
			l0,0l25.5-95c4.4-16.6-1.8-36.5-10.5-45.3c2.2-13.9,4-27.4,5.4-39v-0.1c0.7-5.8,1.2-11.2,1.5-15.9c2.8-1.4,5-3.9,5.8-7.1l3.8-14
			C241.4,162.8,238,156.8,232.1,155.3z M192,397c-0.4,1.6-1.6,3-3.4,4c-2,1-4.4,1.2-6.7,0.6l-30.2-8.1l-30.2-8.1
			c-4.4-1.2-7.4-5.4-6.4-9l2.4-9l76.9,20.6L192,397z M197.7,375.5l-76.9-20.6l22.2-82.5l76.9,20.6L197.7,375.5z M222.5,280.4
			l-75.6-20.3c5.6-11,16.9-19,21.9-19.1c2.6-0.1,4.9-1.7,5.8-4.1c3.4-8.8,6.8-17.4,10-25.4h30.4c-1.1,8.6-2.4,18.1-3.9,27.8
			l-1.6-0.4c-3.5-0.9-7,1.2-7.9,4.5c-0.9,3.5,1.2,7,4.5,7.9l7.4,2C217.9,256.7,223.1,268.6,222.5,280.4z M224,177.9
			c-0.1,0-0.1,0-0.2,0c-0.1,0-0.1,0-0.2,0c-0.2,0-0.3,0-0.5,0.1c-0.1,0-0.1,0-0.2,0c-0.2,0-0.3,0.1-0.5,0.1c-0.1,0-0.1,0-0.2,0
			c-0.2,0.1-0.3,0.1-0.6,0.2c-0.1,0-0.1,0.1-0.2,0.1c-0.1,0.1-0.2,0.1-0.3,0.2c-0.1,0-0.2,0.1-0.2,0.1c-0.1,0.1-0.2,0.1-0.3,0.2
			c-0.1,0-0.2,0.1-0.2,0.1c-0.1,0.1-0.2,0.2-0.3,0.2c-0.1,0-0.1,0.1-0.2,0.1c-0.2,0.1-0.2,0.2-0.4,0.3c0,0,0,0-0.1,0.1
			c-0.2,0.2-0.2,0.2-0.4,0.4l-0.1,0.1c-0.1,0.1-0.2,0.2-0.3,0.3c0,0.1-0.1,0.1-0.1,0.2c-0.1,0.1-0.2,0.2-0.2,0.3
			c0,0.1-0.1,0.1-0.1,0.2c-0.1,0.1-0.1,0.2-0.2,0.3c0,0.1-0.1,0.2-0.1,0.2c-0.1,0.1-0.1,0.2-0.2,0.3c0,0.1-0.1,0.2-0.1,0.2
			c-0.1,0.2-0.1,0.3-0.2,0.5c-0.1,0.2-0.1,0.4-0.2,0.6c0,0,0,0.1,0,0.2v0.1c0,0.2-0.1,0.4-0.1,0.6c-0.2,4.2-0.7,9.1-1.2,14.7h-26.4
			c3.3-7.7,6.4-14.3,9.1-19.6c0.1-0.2,0.2-0.3,0.2-0.5v-0.1v-0.1c0.1-0.2,0.2-0.4,0.2-0.6c0.1-0.2,0.1-0.3,0.1-0.5
			c0-0.1,0-0.2,0-0.2c0-0.1,0-0.2,0-0.3c0-0.1,0-0.2,0-0.2c0-0.2,0-0.2,0-0.4c0-0.1,0-0.2,0-0.2c0-0.2,0-0.2,0-0.4
			c0-0.1,0-0.1,0-0.2c0-0.2-0.1-0.3-0.1-0.5v-0.1c-0.1-0.2-0.1-0.4-0.2-0.6l0,0c-0.1-0.2-0.1-0.3-0.2-0.5c0-0.1-0.1-0.1-0.1-0.2
			c-0.1-0.1-0.1-0.2-0.2-0.3c0-0.1-0.1-0.2-0.1-0.2c-0.1-0.1-0.1-0.2-0.2-0.2s-0.1-0.2-0.2-0.2c-0.1-0.1-0.2-0.2-0.2-0.3
			c-0.1-0.1-0.1-0.1-0.2-0.2c-0.1-0.2-0.2-0.2-0.4-0.4c0,0-0.1-0.1-0.2-0.1c-0.1-0.1-0.2-0.2-0.3-0.2c-0.1,0-0.1-0.1-0.2-0.1
			c-0.1-0.1-0.2-0.2-0.3-0.2c-0.1,0-0.1-0.1-0.2-0.1l-0.1-0.1l2.9-10.7l27.3,7.3L224,177.9z"/>
		<path class="st0" d="M191.3,234h-0.2c-3.5-0.9-7,1.2-7.9,4.5c-0.9,3.5,1.2,7,4.5,7.9h0.2c0.6,0.2,1.2,0.2,1.6,0.2
			c2.9,0,5.4-1.9,6.2-4.8C196.8,238.5,194.7,234.9,191.3,234z"/>
		<path class="st0" d="M164,347.4c2.1,0.6,4.2,0.8,6.3,0.8c11,0,20.6-7.4,23.4-18c1.6-6.3,0.8-12.8-2.4-18.5
			c-3.2-5.6-8.5-9.6-14.7-11.3c-2.1-0.6-4.2-0.8-6.3-0.8c-11,0-20.6,7.4-23.4,18c-1.6,6.3-0.8,12.8,2.4,18.5
			C152.5,341.8,157.7,345.7,164,347.4z M159.3,321c1.3-4.9,5.8-8.5,11-8.5c1,0,2,0.2,3,0.4c3,0.8,5.4,2.6,6.9,5.3
			c1.5,2.6,1.9,5.7,1.2,8.6c-1.3,4.9-5.8,8.5-11,8.5c-1,0-2-0.2-3-0.4c-3-0.8-5.4-2.6-6.9-5.3C158.9,327,158.5,324,159.3,321z"/>
		<path class="st0" d="M397.4,373l-29.5-110.1c-4.4-16.6-19.8-30.7-31.8-33.9c-3.5-9.2-7.1-18.1-10.5-26.3l0,0
			c-4-9.4-7.7-17.8-11-24.6c0.5-0.7,1-1.5,1.3-2.3c1-2.5,1-5.2,0-7.5l-3.5-12.9c-0.2-2.5-1.6-4.8-3.6-6.3c-2.7-2.1-6.5-2.9-9.9-2
			l-31.1,8.2c-2.8,0.7-5.2,2.6-6.7,5.1c-1.5,2.6-1.9,5.5-1.1,8.3l3.8,14c0.8,3.2,3,5.8,5.8,7.1c0.3,4.7,0.9,10,1.5,15.9v0.1
			c1.3,11.6,3.1,25,5.4,39c-8.8,8.8-15,28.7-10.5,45.3l29.5,110.1c1.4,5.3,4.9,9.6,10,12.1c3,1.6,6.4,2.3,9.9,2.3c2,0,4-0.2,5.9-0.8
			l60.5-16.2c5.4-1.5,10-4.7,12.9-9.2C397.9,383.8,398.8,378.3,397.4,373z M276.8,178c-0.1,0-0.2,0-0.3,0c-0.1,0-0.2,0-0.3,0
			c-0.1,0-0.2,0-0.2,0h-0.1l-2.9-10.7l27.3-7.3l2.9,10.7l-0.1,0.1c-0.1,0-0.1,0.1-0.2,0.1c-0.1,0.1-0.2,0.2-0.3,0.2
			c-0.1,0-0.1,0.1-0.2,0.1c-0.1,0.1-0.2,0.2-0.3,0.2c-0.1,0-0.1,0.1-0.2,0.1c-0.2,0.2-0.2,0.2-0.4,0.4c-0.1,0.1-0.1,0.1-0.2,0.2
			c-0.1,0.1-0.2,0.2-0.2,0.2s-0.1,0.2-0.2,0.2c-0.1,0.1-0.1,0.2-0.2,0.2c0,0.1-0.1,0.2-0.1,0.2c-0.1,0.1-0.1,0.2-0.2,0.3
			c0,0.1-0.1,0.1-0.1,0.2c-0.1,0.2-0.2,0.3-0.2,0.5c0,0,0,0,0,0.1c-0.1,0.2-0.1,0.4-0.2,0.6v0.1c0,0.2-0.1,0.3-0.1,0.5
			c0,0.1,0,0.1,0,0.2c0,0.2,0,0.2,0,0.4c0,0.1,0,0.2,0,0.2c0,0.2,0,0.2,0,0.4c0,0.1,0,0.2,0,0.2s0,0.2,0,0.3c0,0.1,0,0.2,0,0.2
			c0,0.2,0.1,0.3,0.1,0.5c0.1,0.2,0.1,0.3,0.2,0.5c0,0.1,0,0.1,0.1,0.2c0,0,0,0,0,0.1c0.1,0.2,0.2,0.4,0.2,0.6
			c2.6,5.3,5.8,11.9,9.1,19.6h-26.4c-0.6-5.5-1-10.5-1.2-14.7c0-0.2,0-0.4-0.1-0.6v-0.1c0,0,0-0.1,0-0.2c0-0.2-0.1-0.4-0.1-0.6
			c-0.1-0.2-0.1-0.3-0.2-0.5c0-0.1-0.1-0.2-0.1-0.2c-0.1-0.1-0.1-0.2-0.2-0.3c0-0.1-0.1-0.2-0.1-0.2c-0.1-0.1-0.1-0.2-0.2-0.3
			c0-0.1-0.1-0.1-0.1-0.2c-0.1-0.1-0.2-0.2-0.2-0.3c0-0.1-0.1-0.1-0.1-0.2c-0.1-0.1-0.2-0.2-0.2-0.3l-0.1-0.1
			c-0.2-0.2-0.2-0.2-0.4-0.4c-0.1-0.1-0.1-0.1-0.2-0.2c-0.1-0.1-0.2-0.2-0.2-0.2c-0.1-0.1-0.2-0.1-0.2-0.2c-0.1-0.1-0.2-0.1-0.2-0.2
			c-0.1-0.1-0.2-0.1-0.3-0.2c-0.1,0-0.1-0.1-0.2-0.1c-0.1-0.1-0.2-0.1-0.3-0.2c0,0-0.1,0-0.1-0.1c-0.4-0.2-0.8-0.3-1.2-0.4
			C277,178,276.9,178,276.8,178z M286.3,253.4l7.4-2c3.5-0.9,5.4-4.4,4.5-7.9c-0.9-3.5-4.4-5.4-7.9-4.5l-1.6,0.4
			c-1.5-9.7-2.8-19.2-3.9-27.8h30.4c3.3,8,6.7,16.6,10,25.4c0.9,2.5,3.2,4.1,5.8,4.1c5,0.2,16.3,8.1,21.9,19.1l-75.6,20.3
			C276.8,268.6,282.1,256.7,286.3,253.4z M302.2,375.5L280.1,293l76.9-20.6l22.2,82.5L302.2,375.5z M383.9,381.5
			c-1.2,1.9-3.1,3.2-5.4,3.9L318,401.6c-2.3,0.7-4.7,0.4-6.7-0.6c-1.7-0.9-3-2.3-3.4-4l-2.4-9l76.9-20.6l2.4,9
			C385.4,378,385,379.8,383.9,381.5z"/>
		<path class="st0" d="M308.8,233.9h-0.2c-3.5,0.9-5.4,4.4-4.5,7.9c0.7,2.9,3.4,4.8,6.2,4.8c0.6,0,1.2-0.1,1.6-0.2h0.2
			c3.5-0.9,5.4-4.4,4.5-7.9C315.8,235.1,312.3,233,308.8,233.9z"/>
		<path class="st0" d="M329.6,299.8c-2.1,0-4.2,0.2-6.3,0.8c-6.3,1.6-11.5,5.7-14.7,11.3c-3.2,5.6-4.1,12.2-2.4,18.5
			c2.8,10.6,12.4,18,23.4,18c2.1,0,4.2-0.2,6.3-0.8c6.3-1.6,11.5-5.7,14.7-11.3c3.2-5.6,4.1-12.2,2.4-18.5
			C350.2,307.1,340.6,299.8,329.6,299.8z M339.5,329.7c-1.5,2.6-4,4.5-6.9,5.3c-1,0.2-2,0.4-3,0.4l0,0c-5.1,0-9.6-3.5-11-8.5
			c-0.8-3-0.4-6,1.2-8.6c1.5-2.6,4-4.5,6.9-5.3c1-0.2,2-0.4,3-0.4c5.1,0,9.6,3.5,11,8.5C341.4,324,341.1,327,339.5,329.7z"/>
		<path class="st0" d="M250,85.3c-3.5,0-6.4,2.9-6.4,6.4v17.2c0,3.5,2.9,6.4,6.4,6.4c3.5,0,6.4-2.9,6.4-6.4V91.7
			C256.4,88.1,253.5,85.3,250,85.3z"/>
		<path class="st0" d="M217.4,124c1.2,2.1,3.4,3.2,5.5,3.2c1.1,0,2.2-0.2,3.2-0.9c3-1.8,4.1-5.8,2.3-8.8l-8.7-14.9
			c-1.8-3-5.8-4.1-8.8-2.3c-3,1.8-4.1,5.8-2.3,8.8L217.4,124z"/>
		<path class="st0" d="M273.8,126.4c1,0.6,2.1,0.9,3.2,0.9c2.2,0,4.4-1.2,5.5-3.2l8.8-14.9c1.8-3,0.7-7-2.3-8.8
			c-3-1.8-7-0.7-8.8,2.3l-8.7,14.9C269.7,120.6,270.7,124.5,273.8,126.4z"/>
	</g>
	<rect x="0" class="st1" width="500" height="500"/>
</g>
</svg>
