<?xml version="1.0" encoding="utf-8"?>
<!-- Generator: Adobe Illustrator 22.0.1, SVG Export Plug-In . SVG Version: 6.00 Build 0)  -->
<svg version="1.1" id="Layer_1" xmlns="http://www.w3.org/2000/svg" xmlns:xlink="http://www.w3.org/1999/xlink" x="0px" y="0px"
	 viewBox="0 0 500 500" style="enable-background:new 0 0 500 500;" xml:space="preserve">
<style type="text/css">
	.st0{fill:#28202F;}
	.st1{fill:none;}
</style>
<g>
	<g>
		<path class="st0" d="M364.7,211.7c0-13.6-7.8-24.3-17.8-24.3h-0.1c1-5.5,1.5-11.1,1.5-16.8c0-53.4-43.4-96.8-96.8-96.8
			c-53.4,0-96.8,43.4-96.8,96.8c0,5.7,0.5,11.3,1.5,16.8h-2.8c-10,0-17.8,10.7-17.8,24.3c0,13,7.1,23.3,16.5,24.2
			c-0.2,0.9-0.3,1.9-0.3,2.9v17.3c0,9.9,8,17.9,17.9,17.9h1.4l2.2,5.2l57.2,132.7c3.8,8.7,11.7,14.2,20.8,14.2
			c9.1,0,17.1-5.4,20.8-14.2l57.2-132.7l2.2-5.2h1.4c9.9,0,17.9-8,17.9-17.9v-17.3c0-1.2-0.1-2.3-0.3-3.4
			C358.9,233,364.7,223.4,364.7,211.7z M150.6,211.7c0-5.5,2.2-8.9,3.1-9.5h6.4H176h4.1c4.1,0,7.4-3.3,7.4-7.4s-3.3-7.4-7.4-7.4
			h-8.7c-1.1-5.4-1.7-11-1.7-16.8c0-45.2,36.7-81.9,81.9-81.9c45.2,0,81.9,36.7,81.9,81.9c0,5.8-0.6,11.4-1.7,16.8h-11.7
			c-4.1,0-7.4,3.3-7.4,7.4s3.3,7.4,7.4,7.4h7.1H343h3.7c1,0.6,3.1,4,3.1,9.5c0,5.5-2.2,8.9-3.1,9.5H336c-0.6-0.1-1.2-0.2-1.8-0.2
			c-0.3,0-0.6,0-0.9,0h-17.1H187h-17.1c-0.3,0-0.6,0-0.9,0c-0.6,0-1.2,0.1-1.8,0.2h-13.4C152.8,220.5,150.6,217.1,150.6,211.7z
			 M258.8,406.1c-1.5,3.5-4.3,5.2-7.2,5.2c-2.9,0-5.7-1.7-7.2-5.2l-23.9-55.3h32.4c3.4,0,6.1-2.7,6.1-6.1s-2.7-6.1-6.1-6.1h-37.6
			l-5-11.7h30.6c3.4,0,6.1-2.7,6.1-6.1c0-3.4-2.7-6.1-6.1-6.1H205l-5-11.7h28.8c3.4,0,6.1-2.7,6.1-6.1c0-3.4-2.7-6.1-6.1-6.1h-34.1
			l-7.3-16.9h128.3L258.8,406.1z M335,256.1c0,0.9-0.8,1.7-1.7,1.7h-39.9h-83.7h-39.9c-0.9,0-1.7-0.8-1.7-1.7v-17.3
			c0-0.9,0.8-1.7,1.7-1.7h11.6h22.4h95.5h22.4h11.6c0.9,0,1.7,0.8,1.7,1.7V256.1z"/>
	</g>
	<rect class="st1" width="500" height="500"/>
</g>
</svg>
